<svg width="285" height="395" viewBox="0 0 285 395" fill="none" xmlns="http://www.w3.org/2000/svg">
    <path
        d="M213.78 8.53275H71.0073C58.3336 8.53275 48.0622 18.8053 48.0622 31.479V55.4251H236.725V31.479C236.725 18.8065 226.455 8.53275 213.78 8.53275Z"
        fill="white" />
    <path
        d="M93.762 8.53275H71.0073C58.3336 8.53275 48.0622 18.8053 48.0622 31.479V55.4251H70.818V31.479C70.8169 18.8065 81.0883 8.53275 93.762 8.53275Z"
        fill="#AA77FF" />
    <path
        d="M232.289 358.674L253.935 96.6305H30.8519L52.4984 358.674C53.1164 364.314 57.0874 385.865 81.6025 385.865H203.186C227.701 385.865 231.671 364.314 232.289 358.674Z"
        fill="#AA77FF" />
    <path
        d="M75.2531 358.674L53.6066 96.6294H30.8519L52.4984 358.673C53.1164 364.312 57.0874 385.864 81.6025 385.864H104.358C79.8421 385.865 75.8711 364.314 75.2531 358.674Z"
        fill="#AA77FF" />
    <path
        d="M164.695 202.062C149.761 187.128 127.666 185.009 115.345 197.329C103.024 209.65 105.142 231.745 120.076 246.68C135.011 261.614 157.105 263.734 169.427 251.413C181.748 239.092 179.629 216.997 164.695 202.062Z"
        fill="white" />
    <path
        d="M276.244 75.4595C276.244 87.7808 266.256 97.7672 253.936 97.7672H30.8519C18.5294 97.7672 8.54413 87.7797 8.54413 75.4595C8.54413 63.1381 18.5305 53.1517 30.8519 53.1517H253.936C266.257 53.1494 276.244 63.1381 276.244 75.4595Z"
        fill="#AA77FF" />
    <path
        d="M253.937 75.4595H30.8519C22.5985 75.4595 15.41 70.9674 11.5518 64.3044C2.95522 79.1535 13.6964 97.7672 30.8519 97.7672H253.937C271.079 97.7672 281.841 79.1637 273.237 64.3044C269.377 70.9674 262.189 75.4595 253.937 75.4595Z"
        fill="#AA77FF" />
    <path
        d="M284.769 75.4595C284.769 58.4533 270.934 44.6178 253.927 44.6178H245.25V31.4801C245.25 14.1228 231.129 0 213.771 0H70.997C53.6397 0 39.518 14.1216 39.518 31.4801V44.6178H30.8416C13.8355 44.6167 0 58.4522 0 75.4595C0 89.7202 9.73101 101.747 22.9006 105.26L25.5492 137.186C25.7683 139.416 26.8559 141.471 28.577 142.906C30.2981 144.341 32.5147 145.042 34.748 144.856C36.9812 144.671 39.052 143.615 40.513 141.915C41.974 140.216 42.708 138.01 42.5565 135.775L40.1109 106.302H244.654L223.785 357.851C222.958 365.179 219.169 377.334 203.174 377.334H81.5934C65.5939 377.334 61.8087 365.178 60.9844 357.85L45.8617 175.596C45.4729 170.9 41.3502 167.417 36.6529 167.797C34.3975 167.985 32.3088 169.06 30.8463 170.787C29.3838 172.515 28.6673 174.752 28.8544 177.007L43.9851 359.38C43.9908 359.454 43.9987 359.53 44.0067 359.604C45.7659 375.654 56.6644 394.399 81.5945 394.399H203.178C225.587 394.399 239.27 378.119 240.786 359.381L261.87 105.26C275.038 101.747 284.769 89.7214 284.769 75.4595ZM56.5846 31.4801C56.5846 23.5323 63.0503 17.0666 70.997 17.0666H213.77C221.716 17.0666 228.182 23.5323 228.182 31.4801V44.6178H56.5846V31.4801ZM253.926 89.2334H30.8416C23.2461 89.2334 17.0666 83.0527 17.0666 75.4583C17.0666 67.8639 23.2461 61.6833 30.8416 61.6833H253.926C261.522 61.6833 267.701 67.8639 267.701 75.4583C267.702 83.0516 261.526 89.2334 253.926 89.2334Z"
        fill="white" />
</svg>