<svg width="512" height="512" viewBox="0 0 512 512" fill="none" xmlns="http://www.w3.org/2000/svg">
    <rect width="512" height="512" rx="50" fill="#57C5B6" />
    <path
        d="M327.78 67.5327H185.007C172.334 67.5327 162.062 77.8053 162.062 90.479V114.425H350.725V90.479C350.725 77.8065 340.455 67.5327 327.78 67.5327Z"
        fill="white" />
    <path
        d="M207.762 67.5327H185.007C172.334 67.5327 162.062 77.8053 162.062 90.479V114.425H184.818V90.479C184.817 77.8065 195.088 67.5327 207.762 67.5327Z"
        fill="#AA77FF" />
    <path
        d="M346.289 417.674L367.935 155.631H144.852L166.498 417.674C167.116 423.314 171.087 444.865 195.602 444.865H317.186C341.701 444.865 345.671 423.314 346.289 417.674Z"
        fill="#AA77FF" />
    <path
        d="M189.253 417.674L167.607 155.629H144.852L166.498 417.673C167.116 423.312 171.087 444.864 195.602 444.864H218.358C193.842 444.865 189.871 423.314 189.253 417.674Z"
        fill="#AA77FF" />
    <path
        d="M278.695 261.062C263.761 246.128 241.666 244.009 229.345 256.329C217.024 268.65 219.142 290.745 234.076 305.68C249.011 320.614 271.105 322.734 283.427 310.413C295.748 298.092 293.629 275.997 278.695 261.062Z"
        fill="white" />
    <path
        d="M390.244 134.459C390.244 146.781 380.256 156.767 367.936 156.767H144.852C132.529 156.767 122.544 146.78 122.544 134.459C122.544 122.138 132.531 112.152 144.852 112.152H367.936C380.257 112.149 390.244 122.138 390.244 134.459Z"
        fill="#AA77FF" />
    <path
        d="M367.937 134.459H144.852C136.599 134.459 129.41 129.967 125.552 123.304C116.955 138.153 127.696 156.767 144.852 156.767H367.937C385.079 156.767 395.841 138.164 387.237 123.304C383.377 129.967 376.189 134.459 367.937 134.459Z"
        fill="#AA77FF" />
    <path
        d="M398.769 134.459C398.769 117.453 384.934 103.618 367.927 103.618H359.25V90.4801C359.25 73.1228 345.129 59 327.771 59H184.997C167.64 59 153.518 73.1216 153.518 90.4801V103.618H144.842C127.835 103.617 114 117.452 114 134.459C114 148.72 123.731 160.747 136.901 164.26L139.549 196.186C139.768 198.416 140.856 200.471 142.577 201.906C144.298 203.341 146.515 204.042 148.748 203.856C150.981 203.671 153.052 202.615 154.513 200.915C155.974 199.216 156.708 197.01 156.556 194.775L154.111 165.302H358.654L337.785 416.851C336.958 424.179 333.169 436.334 317.174 436.334H195.593C179.594 436.334 175.809 424.178 174.984 416.85L159.862 234.596C159.473 229.9 155.35 226.417 150.653 226.797C148.397 226.985 146.309 228.06 144.846 229.787C143.384 231.515 142.667 233.752 142.854 236.007L157.985 418.38C157.991 418.454 157.999 418.53 158.007 418.604C159.766 434.654 170.664 453.399 195.595 453.399H317.178C339.587 453.399 353.27 437.119 354.786 418.381L375.869 164.26C389.038 160.747 398.769 148.721 398.769 134.459ZM170.585 90.4801C170.585 82.5323 177.05 76.0666 184.997 76.0666H327.77C335.716 76.0666 342.182 82.5323 342.182 90.4801V103.618H170.585V90.4801ZM367.926 148.233H144.842C137.246 148.233 131.067 142.053 131.067 134.458C131.067 126.864 137.246 120.683 144.842 120.683H367.926C375.522 120.683 381.701 126.864 381.701 134.458C381.702 142.052 375.526 148.233 367.926 148.233Z"
        fill="white" />
</svg>