<svg width="716" height="704" viewBox="0 0 716 704" fill="none" xmlns="http://www.w3.org/2000/svg">
    <path d="M14.725 25.975H404.575" stroke="#D3DFFF" stroke-miterlimit="10" />
    <path d="M125.125 82.9H335.575" stroke="#D3DFFF" stroke-miterlimit="10" />
    <path d="M192.4 138.1H290.725" stroke="#D3DFFF" stroke-miterlimit="10" />
    <path d="M335.575 369.25L270.025 434.8" stroke="#D3DFFF" stroke-miterlimit="10" />
    <path
        d="M326.95 65.65C240.7 151.9 240.7 291.625 326.95 377.875C413.2 464.125 552.925 464.125 639.175 377.875C725.425 291.625 725.425 151.9 639.175 65.65C552.925 -20.6 413.2 -20.6 326.95 65.65ZM344.2 82.9C420.1 6.99999 544.3 6.99999 621.925 82.9C697.825 158.8 697.825 283 621.925 360.625C546.025 436.525 421.825 436.525 344.2 360.625C268.3 283 268.3 158.8 344.2 82.9Z"
        fill="#D3DFFF" />
    <path d="M320.05 445.15L75.1 690.1C57.85 707.35 30.25 707.35 13 690.1L289 414.1L320.05 445.15Z"
        fill="#D3DFFF" />
    <path
        d="M289 415.825L13 691.825C-4.25 674.575 -4.25 646.975 13 629.725L257.95 384.775L289 415.825Z"
        fill="#D3DFFF" />
    <path d="M276.925 491.725L213.1 427.9" stroke="#D3DFFF" stroke-miterlimit="10" />
    <path d="M251.05 519.325L185.5 453.775" stroke="#D3DFFF" stroke-miterlimit="10" />
    <path
        d="M715.075 327.85C703 357.175 684.025 384.775 661.6 407.2C639.175 429.625 613.3 446.875 582.25 460.675C552.925 472.75 520.15 479.65 485.65 479.65C451.15 479.65 418.375 472.75 389.05 460.675"
        stroke="#D3DFFF" stroke-miterlimit="10" stroke-dasharray="1 1" />
    <path
        d="M487.375 39.775V217.45L613.3 343.375C646.075 310.6 665.05 267.475 665.05 217.45C665.05 119.125 585.7 39.775 487.375 39.775Z"
        fill="#62CDFF" />
    <path
        d="M352.825 91.525C320.05 124.3 301.075 167.425 301.075 217.45H478.75V39.775C430.45 39.775 385.6 58.75 352.825 91.525Z"
        fill="#62CDFF" />
    <path
        d="M478.75 226.075H301.075C301.075 324.4 380.425 403.75 478.75 403.75C527.05 403.75 571.9 383.05 604.675 352L478.75 226.075Z"
        fill="#AA77FF" />
</svg>
    